<svg xmlns="http://www.w3.org/2000/svg" xmlns:xlink="http://www.w3.org/1999/xlink" width="948" height="292" viewBox="264 589 948 292" version="1.0"><defs><g/><clipPath id="5227c14888"><rect x="0" width="620" y="0" height="158"/></clipPath><clipPath id="1eafe3550b"><path d="M 265.578125 666 L 353 666 L 353 845 L 265.578125 845 Z M 265.578125 666 " clip-rule="nonzero"/></clipPath><clipPath id="2055b996ce"><path d="M 450 594.722656 L 537 594.722656 L 537 846 L 450 846 Z M 450 594.722656 " clip-rule="nonzero"/></clipPath></defs><g transform="matrix(1, 0, 0, 1, 588, 687)"><g clip-path="url(#5227c14888)"><g fill="#ffffff" fill-opacity="1"><g transform="translate(1.069084, 123.991434)"><g><path d="M 68.015625 2.515625 C 61.140625 2.515625 54.59375 1.472656 48.375 -0.609375 C 42.15625 -2.691406 36.457031 -5.613281 31.28125 -9.375 C 26.101562 -13.132812 21.601562 -17.570312 17.78125 -22.6875 C 13.96875 -27.800781 11.019531 -33.4375 8.9375 -39.59375 C 6.851562 -45.757812 5.8125 -52.253906 5.8125 -59.078125 C 5.8125 -65.960938 6.851562 -72.5 8.9375 -78.6875 C 11.019531 -84.875 13.984375 -90.523438 17.828125 -95.640625 C 21.671875 -100.765625 26.195312 -105.207031 31.40625 -108.96875 C 36.613281 -112.726562 42.335938 -115.632812 48.578125 -117.6875 C 54.828125 -119.738281 61.425781 -120.765625 68.375 -120.765625 C 73.34375 -120.765625 78.34375 -120.171875 83.375 -118.984375 C 88.40625 -117.804688 93.21875 -116.0625 97.8125 -113.75 C 102.414062 -111.4375 106.625 -108.585938 110.4375 -105.203125 C 114.257812 -101.816406 117.515625 -97.9375 120.203125 -93.5625 C 122.898438 -89.195312 124.796875 -84.359375 125.890625 -79.046875 L 103.9375 -79.046875 C 100.875 -85.921875 96.1875 -91.296875 89.875 -95.171875 C 83.570312 -99.046875 76.226562 -100.984375 67.84375 -100.984375 C 62.289062 -100.984375 57.054688 -99.984375 52.140625 -97.984375 C 47.222656 -95.992188 42.910156 -93.144531 39.203125 -89.4375 C 35.503906 -85.738281 32.597656 -81.332031 30.484375 -76.21875 C 28.378906 -71.101562 27.328125 -65.390625 27.328125 -59.078125 C 27.328125 -52.660156 28.378906 -46.890625 30.484375 -41.765625 C 32.597656 -36.648438 35.503906 -32.269531 39.203125 -28.625 C 42.910156 -24.988281 47.222656 -22.203125 52.140625 -20.265625 C 57.054688 -18.328125 62.289062 -17.359375 67.84375 -17.359375 C 74.90625 -17.359375 81.007812 -18.554688 86.15625 -20.953125 C 91.300781 -23.347656 95.476562 -26.65625 98.6875 -30.875 C 101.894531 -35.101562 104.050781 -39.96875 105.15625 -45.46875 L 66.984375 -45.46875 L 66.984375 -63.515625 L 128.578125 -63.515625 C 128.640625 -53.847656 127.335938 -44.976562 124.671875 -36.90625 C 122.015625 -28.84375 118.082031 -21.859375 112.875 -15.953125 C 107.664062 -10.054688 101.300781 -5.503906 93.78125 -2.296875 C 86.269531 0.910156 77.679688 2.515625 68.015625 2.515625 Z M 68.015625 2.515625 "/></g></g></g><g fill="#ffffff" fill-opacity="1"><g transform="translate(135.438962, 123.991434)"><g><path d="M 52.84375 2.6875 C 46.070312 2.6875 39.820312 1.472656 34.09375 -0.953125 C 28.375 -3.378906 23.414062 -6.757812 19.21875 -11.09375 C 15.019531 -15.4375 11.765625 -20.472656 9.453125 -26.203125 C 7.140625 -31.929688 5.984375 -38.0625 5.984375 -44.59375 C 5.984375 -51.132812 7.140625 -57.25 9.453125 -62.9375 C 11.765625 -68.632812 15.019531 -73.648438 19.21875 -77.984375 C 23.414062 -82.328125 28.375 -85.726562 34.09375 -88.1875 C 39.820312 -90.644531 46.097656 -91.875 52.921875 -91.875 C 59.804688 -91.875 66.109375 -90.644531 71.828125 -88.1875 C 77.554688 -85.726562 82.53125 -82.328125 86.75 -77.984375 C 90.976562 -73.648438 94.25 -68.632812 96.5625 -62.9375 C 98.875 -57.25 100.03125 -51.132812 100.03125 -44.59375 C 100.03125 -38 98.875 -31.851562 96.5625 -26.15625 C 94.25 -20.457031 90.976562 -15.4375 86.75 -11.09375 C 82.53125 -6.757812 77.539062 -3.378906 71.78125 -0.953125 C 66.03125 1.472656 59.71875 2.6875 52.84375 2.6875 Z M 53.015625 -16.828125 C 58.046875 -16.828125 62.523438 -18.023438 66.453125 -20.421875 C 70.390625 -22.828125 73.5 -26.113281 75.78125 -30.28125 C 78.070312 -34.445312 79.21875 -39.21875 79.21875 -44.59375 C 79.21875 -49.976562 78.070312 -54.765625 75.78125 -58.953125 C 73.5 -63.148438 70.390625 -66.445312 66.453125 -68.84375 C 62.523438 -71.25 58.046875 -72.453125 53.015625 -72.453125 C 48.035156 -72.453125 43.5625 -71.25 39.59375 -68.84375 C 35.632812 -66.445312 32.515625 -63.148438 30.234375 -58.953125 C 27.953125 -54.765625 26.8125 -49.976562 26.8125 -44.59375 C 26.8125 -39.21875 27.953125 -34.445312 30.234375 -30.28125 C 32.515625 -26.113281 35.632812 -22.828125 39.59375 -20.421875 C 43.5625 -18.023438 48.035156 -16.828125 53.015625 -16.828125 Z M 53.015625 -16.828125 "/></g></g></g><g fill="#ffffff" fill-opacity="1"><g transform="translate(241.442827, 123.991434)"><g><path d="M 35.65625 0 L 14.0625 0 L 14.0625 -118 L 32.625 -118 L 96.90625 -35.40625 L 96.90625 -118 L 118.421875 -118 L 118.421875 0 L 99.953125 0 L 35.65625 -82.515625 Z M 35.65625 0 "/></g></g></g><g fill="#ffffff" fill-opacity="1"><g transform="translate(373.904288, 123.991434)"><g><path d="M 52.84375 2.6875 C 46.070312 2.6875 39.820312 1.472656 34.09375 -0.953125 C 28.375 -3.378906 23.414062 -6.757812 19.21875 -11.09375 C 15.019531 -15.4375 11.765625 -20.472656 9.453125 -26.203125 C 7.140625 -31.929688 5.984375 -38.0625 5.984375 -44.59375 C 5.984375 -51.132812 7.140625 -57.25 9.453125 -62.9375 C 11.765625 -68.632812 15.019531 -73.648438 19.21875 -77.984375 C 23.414062 -82.328125 28.375 -85.726562 34.09375 -88.1875 C 39.820312 -90.644531 46.097656 -91.875 52.921875 -91.875 C 59.804688 -91.875 66.109375 -90.644531 71.828125 -88.1875 C 77.554688 -85.726562 82.53125 -82.328125 86.75 -77.984375 C 90.976562 -73.648438 94.25 -68.632812 96.5625 -62.9375 C 98.875 -57.25 100.03125 -51.132812 100.03125 -44.59375 C 100.03125 -38 98.875 -31.851562 96.5625 -26.15625 C 94.25 -20.457031 90.976562 -15.4375 86.75 -11.09375 C 82.53125 -6.757812 77.539062 -3.378906 71.78125 -0.953125 C 66.03125 1.472656 59.71875 2.6875 52.84375 2.6875 Z M 53.015625 -16.828125 C 58.046875 -16.828125 62.523438 -18.023438 66.453125 -20.421875 C 70.390625 -22.828125 73.5 -26.113281 75.78125 -30.28125 C 78.070312 -34.445312 79.21875 -39.21875 79.21875 -44.59375 C 79.21875 -49.976562 78.070312 -54.765625 75.78125 -58.953125 C 73.5 -63.148438 70.390625 -66.445312 66.453125 -68.84375 C 62.523438 -71.25 58.046875 -72.453125 53.015625 -72.453125 C 48.035156 -72.453125 43.5625 -71.25 39.59375 -68.84375 C 35.632812 -66.445312 32.515625 -63.148438 30.234375 -58.953125 C 27.953125 -54.765625 26.8125 -49.976562 26.8125 -44.59375 C 26.8125 -39.21875 27.953125 -34.445312 30.234375 -30.28125 C 32.515625 -26.113281 35.632812 -22.828125 39.59375 -20.421875 C 43.5625 -18.023438 48.035156 -16.828125 53.015625 -16.828125 Z M 53.015625 -16.828125 "/></g></g></g><g fill="#ffffff" fill-opacity="1"><g transform="translate(479.908154, 123.991434)"><g><path d="M 49.796875 0 L 30.890625 0 L 0.875 -89.1875 L 23.421875 -89.1875 L 40.859375 -32.625 L 42.421875 -27.328125 L 42.6875 -27.328125 L 44.328125 -32.625 L 61.25 -89.1875 L 76.78125 -89.1875 L 93.09375 -33.234375 L 94.921875 -27.328125 L 95.171875 -27.328125 L 97.265625 -33.578125 L 114.703125 -89.1875 L 136.828125 -89.1875 L 106.71875 0 L 87.28125 0 L 68.71875 -57.78125 L 68.625 -57.78125 Z M 49.796875 0 "/></g></g></g></g></g><g clip-path="url(#1eafe3550b)"><path fill="#ff5757" d="M 337.734375 707.011719 C 336.058594 705.617188 283.503906 670.996094 278.320312 668.246094 C 271.816406 664.792969 266.269531 668.523438 265.832031 676.097656 C 265.726562 677.867188 266.289062 762.4375 266.328125 768.140625 C 265.621094 779.28125 268.960938 788.945312 276.832031 796.957031 C 280.644531 800.875 350.824219 845.023438 350.890625 844.882812 C 352.050781 843.832031 352.476562 750.902344 351.695312 745.679688 C 353.707031 730.382812 349.914062 717.171875 337.734375 707.011719 Z M 337.734375 707.011719 " fill-opacity="1" fill-rule="nonzero"/></g><path fill="#ffbd59" d="M 444.054688 841.121094 C 444.15625 826.605469 444.375 715.507812 444.316406 714.394531 C 443.816406 701.808594 438.699219 691.386719 428.269531 684.429688 C 410.296875 672.441406 370.726562 647.816406 369.40625 647.300781 C 367.886719 646.617188 366.441406 646.328125 365.105469 646.390625 C 363.890625 646.410156 362.820312 646.714844 361.910156 647.316406 C 359.519531 648.710938 357.917969 651.589844 357.691406 655.511719 C 357.605469 656.984375 357.910156 839.246094 357.832031 846.152344 C 357.800781 848.933594 358.386719 850.585938 361.167969 852.214844 C 371.855469 858.496094 382.347656 865.132812 392.683594 871.980469 C 398.746094 876 404.257812 875.890625 410.226562 871.960938 C 419.140625 866.089844 428 860.074219 437.339844 854.957031 C 443.363281 851.660156 445.804688 847.679688 444.054688 841.121094 Z M 444.054688 841.121094 " fill-opacity="1" fill-rule="nonzero"/><g clip-path="url(#2055b996ce)"><path fill="#00bf63" d="M 536.703125 669.507812 C 536.851562 667.171875 536.863281 664.886719 536.707031 662.660156 C 536.707031 662.503906 536.707031 662.351562 536.707031 662.195312 C 535.882812 648.269531 529.265625 637.726562 517.78125 630.140625 C 505.085938 621.761719 492.484375 613.21875 479.46875 605.363281 C 474.148438 602.152344 469.015625 598.476562 463.0625 596.238281 C 463.03125 596.222656 462.980469 596.191406 462.949219 596.175781 C 461.136719 595.214844 459.402344 594.828125 457.828125 594.90625 C 455.292969 594.746094 453.515625 595.664062 452.449219 597.875 C 451.324219 599.421875 450.601562 601.503906 450.457031 604.023438 C 450.417969 604.707031 451.421875 829.457031 451.191406 844.464844 C 452.417969 846.339844 453.683594 845.105469 454.78125 844.398438 C 471.722656 833.488281 488.648438 822.546875 505.574219 811.609375 C 521.855469 803.550781 534.957031 792.738281 536.585938 773.101562 C 537.246094 765.140625 536.703125 677.660156 536.703125 669.507812 Z M 536.703125 669.507812 " fill-opacity="1" fill-rule="nonzero"/></g></svg>