<svg xmlns="http://www.w3.org/2000/svg" xmlns:xlink="http://www.w3.org/1999/xlink" width="2000" zoomAndPan="magnify" viewBox="0 0 1500 1499.999933" height="2000" preserveAspectRatio="xMidYMid meet" version="1.0"><defs><clipPath id="d544ad629c"><path d="M 630.726562 633 L 869.226562 633 L 869.226562 1021 L 630.726562 1021 Z M 630.726562 633 " clip-rule="nonzero"/></clipPath><clipPath id="3a19c8b2dc"><path d="M 944 193.253906 L 1287 193.253906 L 1287 1186 L 944 1186 Z M 944 193.253906 " clip-rule="nonzero"/></clipPath></defs><path fill="#000000" d="M 749.976562 938.761719 L 639.003906 1012.28125 L 752.128906 937.234375 L 752.0625 647.125 L 865.3125 1015.171875 Z M 749.976562 938.761719 " fill-opacity="1" fill-rule="nonzero"/><g clip-path="url(#d544ad629c)"><path fill="#000000" d="M 754.21875 661.449219 L 861.488281 1010.054688 L 753.796875 938.710938 L 754.28125 938.390625 L 754.28125 936.082031 L 754.21875 661.449219 M 749.976562 633.015625 L 630.8125 1020.289062 L 749.976562 941.339844 L 869.140625 1020.289062 Z M 638.464844 1010.054688 L 749.910156 647.855469 L 749.976562 936.082031 Z M 638.464844 1010.054688 " fill-opacity="1" fill-rule="nonzero"/></g><path fill="#ff5757" d="M 497.730469 637.84375 C 491.101562 632.3125 283.015625 495.242188 262.503906 484.359375 C 236.753906 470.691406 214.789062 485.453125 213.050781 515.449219 C 212.640625 522.449219 214.859375 857.277344 215.019531 879.863281 C 212.214844 923.96875 225.433594 962.234375 256.597656 993.960938 C 271.703125 1009.464844 549.554688 1184.261719 549.824219 1183.703125 C 554.417969 1179.550781 556.101562 811.613281 553.007812 790.929688 C 560.964844 730.363281 545.953125 678.058594 497.730469 637.84375 Z M 497.730469 637.84375 " fill-opacity="1" fill-rule="nonzero"/><path fill="#ffbd59" d="M 918.679688 1168.808594 C 919.074219 1111.34375 919.945312 671.484375 919.710938 667.070312 C 917.730469 617.234375 897.476562 575.96875 856.183594 548.425781 C 785.019531 500.96875 628.351562 403.464844 623.125 401.421875 C 617.121094 398.726562 611.386719 397.582031 606.09375 397.828125 C 601.285156 397.898438 597.058594 399.113281 593.453125 401.488281 C 583.988281 407.015625 577.644531 418.414062 576.742188 433.941406 C 576.398438 439.773438 577.609375 1161.390625 577.308594 1188.730469 C 577.183594 1199.738281 579.496094 1206.28125 590.503906 1212.738281 C 632.820312 1237.601562 674.371094 1263.875 715.292969 1290.996094 C 739.292969 1306.902344 761.109375 1306.472656 784.75 1290.910156 C 820.035156 1267.675781 855.113281 1243.847656 892.101562 1223.59375 C 915.945312 1210.539062 925.617188 1194.773438 918.679688 1168.808594 Z M 918.679688 1168.808594 " fill-opacity="1" fill-rule="nonzero"/><g clip-path="url(#3a19c8b2dc)"><path fill="#00bf63" d="M 1285.5 489.351562 C 1286.085938 480.109375 1286.140625 471.054688 1285.507812 462.242188 C 1285.507812 461.625 1285.507812 461.015625 1285.507812 460.394531 C 1282.253906 405.269531 1256.054688 363.515625 1210.578125 333.492188 C 1160.324219 300.316406 1110.425781 266.496094 1058.894531 235.382812 C 1037.828125 222.671875 1017.511719 208.117188 993.9375 199.261719 C 993.808594 199.199219 993.605469 199.078125 993.480469 199.011719 C 986.3125 195.199219 979.453125 193.671875 973.21875 193.984375 C 963.167969 193.351562 956.136719 196.988281 951.921875 205.738281 C 947.464844 211.863281 944.605469 220.109375 944.027344 230.089844 C 943.871094 232.792969 947.847656 1122.632812 946.941406 1182.046875 C 951.785156 1189.472656 956.800781 1184.585938 961.152344 1181.789062 C 1028.230469 1138.59375 1095.230469 1095.269531 1162.246094 1051.964844 C 1226.707031 1020.0625 1278.589844 977.257812 1285.03125 899.511719 C 1287.652344 867.988281 1285.496094 521.625 1285.5 489.351562 Z M 1285.5 489.351562 " fill-opacity="1" fill-rule="nonzero"/></g></svg>